<?xml version="1.0" encoding="utf-8"?>
<!-- Generator: Adobe Illustrator 20.1.0, SVG Export Plug-In . SVG Version: 6.00 Build 0)  -->
<svg version="1.1" id="Layer_1" xmlns="http://www.w3.org/2000/svg" xmlns:xlink="http://www.w3.org/1999/xlink" x="0px" y="0px"
	 viewBox="0 0 1014 1024" style="enable-background:new 0 0 1014 1024;" xml:space="preserve">
<style type="text/css">
	.st0{fill:#FFFFFF;}
</style>
<title></title>
<path class="st0" d="M-2.1,228.6h553v62.3h-553C-2.1,290.9-2.1,228.6-2.1,228.6z M630.3,370.4c-60.8,0-110.6-49.8-110.6-110.6
	s49.8-110.6,110.6-110.6c60.8,0,110.6,49.8,110.6,110.6S691.1,370.4,630.3,370.4L630.3,370.4z M630.3,209.9
	c-26.5,0-48.3,21.8-48.3,48.3s21.8,48.3,48.3,48.3s48.3-21.8,48.3-48.3S656.8,209.9,630.3,209.9L630.3,209.9z M-2.1,400h819.4v62.3
	H-2.1V400z M901.4,541.7c-60.8,0-110.6-49.8-110.6-110.6s49.8-110.6,110.6-110.6c60.8,0,110.6,49.8,110.6,110.6
	S962.1,541.7,901.4,541.7z M901.4,381.3c-26.5,0-48.3,21.8-48.3,48.3c0,26.5,21.8,48.3,48.3,48.3c26.5,0,48.3-21.8,48.3-48.3
	C949.7,403.1,927.9,381.3,901.4,381.3z M169.5,568.3l0.2,62.3l-171.4,0.5l-0.2-62.3L169.5,568.3z M248.7,710
	c-60.8,0-110.6-49.8-110.6-110.6c0-60.8,49.8-110.6,110.6-110.6s110.6,49.8,110.6,110.6C359.3,660.1,311,710,248.7,710L248.7,710z
	 M248.7,551.1c-26.5,0-48.3,21.8-48.3,48.3s21.8,48.3,48.3,48.3s48.3-21.8,48.3-48.3S276.7,551.1,248.7,551.1z M-2.1,736.5h504.7
	v62.3H-2.1V736.5z M583.6,878.2c-60.8,0-110.6-49.8-110.6-110.6S521.3,657,583.6,657c60.8,0,110.6,49.8,110.6,110.6
	S644.3,878.2,583.6,878.2z M583.6,719.3c-26.5,0-48.3,21.8-48.3,48.3s21.8,48.3,48.3,48.3c26.5,0,48.3-21.8,48.3-48.3
	S610.1,719.3,583.6,719.3z"/>
</svg>
