<?xml version="1.0" encoding="utf-8"?>
<!-- Generator: Adobe Illustrator 20.1.0, SVG Export Plug-In . SVG Version: 6.00 Build 0)  -->
<svg version="1.1" id="Layer_1" xmlns="http://www.w3.org/2000/svg" xmlns:xlink="http://www.w3.org/1999/xlink" x="0px" y="0px"
	 viewBox="0 0 1014 1024" style="enable-background:new 0 0 1014 1024;" xml:space="preserve">
<style type="text/css">
	.st0{fill:#FFFFFF;}
</style>
<title></title>
<path class="st0" d="M664.9,682.9l11.9-11.9c-25.9-48.8-18.9-110.6,22.1-151.6c50.3-50.3,132.2-50.3,182.5,0
	c50.3,50.3,50.3,132.2,0,182.5c-41,41-102.8,48-151.6,22.1l-11.9,11.9L429.8,1024H323.9L664.9,682.9L664.9,682.9z M734.6,610.6
	c0,30.7,24.9,55.5,55.5,55.5c30.7,0,55.5-24.9,55.5-55.5c0-30.7-24.9-55.5-55.5-55.5C759.5,555.1,734.6,580,734.6,610.6z"/>
<path class="st0" d="M291.9,310l11.9-11.9c-25.9-48.8-18.9-110.6,22.1-151.6c50.3-50.3,132.1-50.3,182.5,0
	c50.3,50.3,50.3,132.2,0,182.4c-41,41.1-102.8,48-151.6,22.1l-11.9,12L0,707.8V601.9L291.9,310L291.9,310z M361.7,237.7
	c0,30.7,24.9,55.5,55.5,55.5c30.7,0,55.5-24.9,55.5-55.5c0-30.7-24.9-55.5-55.5-55.5C386.5,182.2,361.7,207,361.7,237.7L361.7,237.7
	z"/>
<path class="st0" d="M976.7,37.7c-50.3-50.3-132.1-50.3-182.5,0c-41,41-48,102.8-22.1,151.6l-11.9,11.9L0,961.5v62.5h43.4
	l781.7-781.7c48.8,25.9,110.6,18.9,151.6-22.1C1027,169.9,1027,88,976.7,37.7L976.7,37.7z M885.5,184.5c-30.7,0-55.5-24.9-55.5-55.5
	c0-30.7,24.9-55.5,55.5-55.5c30.7,0,55.5,24.9,55.5,55.5C941,159.6,916.2,184.5,885.5,184.5z"/>
</svg>
