<?xml version="1.0" encoding="utf-8"?>
<!-- Generator: Adobe Illustrator 20.1.0, SVG Export Plug-In . SVG Version: 6.00 Build 0)  -->
<svg version="1.1" id="Layer_1" xmlns="http://www.w3.org/2000/svg" xmlns:xlink="http://www.w3.org/1999/xlink" x="0px" y="0px"
	 viewBox="0 0 1014 1024" style="enable-background:new 0 0 1014 1024;" xml:space="preserve">
<style type="text/css">
	.st0{fill:#FFFFFF;}
</style>
<title></title>
<path class="st0" d="M588,2.4c-47.3,0-87.1,39.6-87.1,87.1c0,39.6,26,71.7,61,82.5v849.5h50.4V172c35.2-10.6,61-44.2,61-82.5
	C675,42,635.3,2.4,588,2.4L588,2.4z M588,126c-21.4,0-38.1-16.9-38.1-38.1s16.9-38.1,38.1-38.1c21.3,0,38.1,16.9,38.1,38.1
	S609.4,126,588,126z"/>
<path class="st0" d="M833.6,254.1c-47.3,0-87.1,39.6-87.1,87.1c0,39.6,26,71.7,61,82.5v597.9H858V425.2c35.2-10.6,61-44.2,61-82.5
	C920.7,292.2,881.1,254,833.6,254.1L833.6,254.1z M833.6,377.6c-21.4,0-38.1-16.9-38.1-38.1c0-21.4,16.9-38.1,38.1-38.1
	s38.1,16.9,38.1,38.1C871.9,360.9,855.1,377.6,833.6,377.6z"/>
<path class="st0" d="M383.5,2.2c-47.3,0-87.1,39.6-87.1,87.1c0,39.6,26,71.7,61,82.5v849.5h50.4V171.8c35.2-10.6,61-44.2,61-82.5
	C470.4,41.8,430.8,2.2,383.5,2.2L383.5,2.2z M383.5,125.8c-21.4,0-38.1-16.9-38.1-38.1s16.9-38.1,38.1-38.1
	c21.3,0,38.1,16.9,38.1,38.1S404.8,125.8,383.5,125.8z"/>
<path class="st0" d="M181.2,254.1c-47.3,0-87.1,38.1-87.1,87.1c0,39.6,26,71.7,61,82.5v597.7h50.4V425c35.2-10.6,61-44.2,61-82.5
	C268.2,292.2,228.4,254,181.2,254.1L181.2,254.1z M181.2,377.6c-21.4,0-38.1-16.9-38.1-38.1c0-21.4,16.9-38.1,38.1-38.1
	c21.4,0,38.1,16.9,38.1,38.1C219.3,360.9,202.6,377.6,181.2,377.6z"/>
</svg>
