<svg xmlns="http://www.w3.org/2000/svg" viewBox="0 0 48 48" width="48" height="48"><g class="nc-icon-wrapper"><path fill="#D82827" d="M48 40a2 2 0 0 1-2 2H2a2 2 0 0 1-2-2V8a2 2 0 0 1 2-2h44a2 2 0 0 1 2 2v32z"/><path fill="#FFFD38" d="M15.396 13.299H11.77L10.248 10l-1.523 3.299H5.101l2.648 2.74-.978 3.975 3.477-1.976 3.478 1.976-.979-3.975 2.649-2.74z"/><circle fill="#FFFD38" cx="17" cy="11" r="1"/><circle fill="#FFFD38" cx="17" cy="19" r="1"/><ellipse fill="#FFFD38" cx="21" cy="13" rx="1" ry="1.001"/><ellipse fill="#FFFD38" cx="20.999" cy="17" rx="1.002" ry="1"/></g></svg>