<svg id="Layer_1" xmlns="http://www.w3.org/2000/svg" viewBox="0 0 1014 1024"><style>.st0{fill:#fff}</style><title/><path class="st0" d="M-2.1 228.6h553v62.3h-553v-62.3zm632.4 141.8c-60.8 0-110.6-49.8-110.6-110.6s49.8-110.6 110.6-110.6S740.9 199 740.9 259.8s-49.8 110.6-110.6 110.6zm0-160.5c-26.5 0-48.3 21.8-48.3 48.3s21.8 48.3 48.3 48.3 48.3-21.8 48.3-48.3-21.8-48.3-48.3-48.3zM-2.1 400h819.4v62.3H-2.1V400zm903.5 141.7c-60.8 0-110.6-49.8-110.6-110.6s49.8-110.6 110.6-110.6S1012 370.3 1012 431.1s-49.9 110.6-110.6 110.6zm0-160.4c-26.5 0-48.3 21.8-48.3 48.3 0 26.5 21.8 48.3 48.3 48.3 26.5 0 48.3-21.8 48.3-48.3 0-26.5-21.8-48.3-48.3-48.3zm-731.9 187l.2 62.3-171.4.5-.2-62.3 171.4-.5zM248.7 710c-60.8 0-110.6-49.8-110.6-110.6s49.8-110.6 110.6-110.6 110.6 49.8 110.6 110.6c0 60.7-48.3 110.6-110.6 110.6zm0-158.9c-26.5 0-48.3 21.8-48.3 48.3s21.8 48.3 48.3 48.3 48.3-21.8 48.3-48.3-20.3-48.3-48.3-48.3zM-2.1 736.5h504.7v62.3H-2.1v-62.3zm585.7 141.7c-60.8 0-110.6-49.8-110.6-110.6S521.3 657 583.6 657c60.8 0 110.6 49.8 110.6 110.6s-49.9 110.6-110.6 110.6zm0-158.9c-26.5 0-48.3 21.8-48.3 48.3s21.8 48.3 48.3 48.3c26.5 0 48.3-21.8 48.3-48.3s-21.8-48.3-48.3-48.3z"/></svg>