<svg id="Layer_1" xmlns="http://www.w3.org/2000/svg" viewBox="0 0 1014 1024"><style>.st0{fill:#fff}</style><title/><path class="st0" d="M664.9 682.9l11.9-11.9c-25.9-48.8-18.9-110.6 22.1-151.6 50.3-50.3 132.2-50.3 182.5 0 50.3 50.3 50.3 132.2 0 182.5-41 41-102.8 48-151.6 22.1l-11.9 11.9L429.8 1024H323.9l341-341.1zm69.7-72.3c0 30.7 24.9 55.5 55.5 55.5 30.7 0 55.5-24.9 55.5-55.5 0-30.7-24.9-55.5-55.5-55.5s-55.5 24.9-55.5 55.5zM291.9 310l11.9-11.9c-25.9-48.8-18.9-110.6 22.1-151.6 50.3-50.3 132.1-50.3 182.5 0 50.3 50.3 50.3 132.2 0 182.4-41 41.1-102.8 48-151.6 22.1l-11.9 12L0 707.8V601.9L291.9 310zm69.8-72.3c0 30.7 24.9 55.5 55.5 55.5 30.7 0 55.5-24.9 55.5-55.5 0-30.7-24.9-55.5-55.5-55.5-30.7 0-55.5 24.8-55.5 55.5zm615-200c-50.3-50.3-132.1-50.3-182.5 0-41 41-48 102.8-22.1 151.6l-11.9 11.9L0 961.5v62.5h43.4l781.7-781.7c48.8 25.9 110.6 18.9 151.6-22.1 50.3-50.3 50.3-132.2 0-182.5zm-91.2 146.8c-30.7 0-55.5-24.9-55.5-55.5 0-30.7 24.9-55.5 55.5-55.5 30.7 0 55.5 24.9 55.5 55.5s-24.8 55.5-55.5 55.5z"/></svg>