<?xml version="1.0" encoding="utf-8"?>
<!-- Generator: Adobe Illustrator 20.1.0, SVG Export Plug-In . SVG Version: 6.00 Build 0)  -->
<svg version="1.1" id="Layer_1" xmlns="http://www.w3.org/2000/svg" xmlns:xlink="http://www.w3.org/1999/xlink" x="0px" y="0px"
	 viewBox="0 0 1014 1024" style="enable-background:new 0 0 1014 1024;" xml:space="preserve">
<style type="text/css">
	.st0{fill:#FFFFFF;}
</style>
<title></title>
<path class="st0" d="M0.6,4.7V541h403.2c12.7,41.5,50.9,71.9,96.4,71.9c55.9,0,101.3-45.4,101.3-101.3
	c0-55.9-45.4-101.3-101.3-101.3c-45.6,0-83.7,30.4-96.4,71.9H59.9V64H955v895.1H59.9V653.3H0.6v365h1013.7V4.7L0.6,4.7L0.6,4.7z
	 M500.2,467.9c24.1,0,43.6,19.5,43.6,43.6c0,24.1-19.5,43.6-43.6,43.6c-24.1,0-43.6-19.5-43.6-43.6
	C456.6,487.5,476.1,467.9,500.2,467.9L500.2,467.9z"/>
</svg>
