<svg id="Layer_1" xmlns="http://www.w3.org/2000/svg" viewBox="0 0 1014 1024"><style>.st0{fill:#fff}</style><title/><path class="st0" d="M588 2.4c-47.3 0-87.1 39.6-87.1 87.1 0 39.6 26 71.7 61 82.5v849.5h50.4V172c35.2-10.6 61-44.2 61-82.5C675 42 635.3 2.4 588 2.4zm0 123.6c-21.4 0-38.1-16.9-38.1-38.1s16.9-38.1 38.1-38.1c21.3 0 38.1 16.9 38.1 38.1S609.4 126 588 126zm245.6 128.1c-47.3 0-87.1 39.6-87.1 87.1 0 39.6 26 71.7 61 82.5v597.9H858V425.2c35.2-10.6 61-44.2 61-82.5 1.7-50.5-37.9-88.7-85.4-88.6zm0 123.5c-21.4 0-38.1-16.9-38.1-38.1 0-21.4 16.9-38.1 38.1-38.1s38.1 16.9 38.1 38.1c.2 21.4-16.6 38.1-38.1 38.1zM383.5 2.2c-47.3 0-87.1 39.6-87.1 87.1 0 39.6 26 71.7 61 82.5v849.5h50.4V171.8c35.2-10.6 61-44.2 61-82.5 1.6-47.5-38-87.1-85.3-87.1zm0 123.6c-21.4 0-38.1-16.9-38.1-38.1s16.9-38.1 38.1-38.1c21.3 0 38.1 16.9 38.1 38.1s-16.8 38.1-38.1 38.1zM181.2 254.1c-47.3 0-87.1 38.1-87.1 87.1 0 39.6 26 71.7 61 82.5v597.7h50.4V425c35.2-10.6 61-44.2 61-82.5 1.7-50.3-38.1-88.5-85.3-88.4zm0 123.5c-21.4 0-38.1-16.9-38.1-38.1 0-21.4 16.9-38.1 38.1-38.1 21.4 0 38.1 16.9 38.1 38.1 0 21.4-16.7 38.1-38.1 38.1z"/></svg>